<svg width="32mm" height="120.945" viewBox="0 0 32 32" xmlns="http://www.w3.org/2000/svg">
    <path style="fill:#f2f2f2;stroke-width:.618517" d="M60.886 100.751a3.9 3.9 0 0 0-3.908 3.908v23.119a3.9 3.9 0 0 0 3.908 3.908h16.458a3.9 3.9 0 0 0 3.908-3.908v-5.417H70.495l-.048 4.44-7.473-5.965 7.602-5.985-.048 4.402h10.724v-9.043l-9.072-9.006a3.971 3.971 0 0 1-.393-.453zm9.663 3.571 7.614 7.485-7.568-.02z" transform="translate(-52.582 -99.686)"/>
    <path style="fill:#000;stroke-width:.618518" d="M59.821 99.686a3.9 3.9 0 0 0-3.908 3.909v23.118a3.9 3.9 0 0 0 3.908 3.909H76.28a3.9 3.9 0 0 0 3.908-3.909v-5.416H69.43l-.048 4.44-7.472-5.966 7.601-5.985-.047 4.402h10.723v-9.043l-9.071-9.005a3.971 3.971 0 0 1-.393-.454zm9.664 3.572 7.613 7.484-7.568-.019z" transform="translate(-52.582 -99.686)"/>
</svg>
