<svg width="32mm" height="117.859" viewBox="0 0 32 31.184" xmlns="http://www.w3.org/2000/svg">
    <path style="fill:#e6e6e6;stroke-width:.501581" d="M5.38 1.027a4.04 4.04 0 0 0-4.05 4.05v22.057a4.04 4.04 0 0 0 4.05 4.05h22.57a4.04 4.04 0 0 0 4.05-4.05V8.084l-6.205-7.057zm4.606 1.757h7.577v5.153h2.57V2.784h3.13v4.892a3.193 3.193 0 0 1-3.2 3.201h-6.876a3.194 3.194 0 0 1-3.2-3.2Zm13.806 8.562v.017h-.015a4.018 4.018 0 0 0 .015-.017zm-12.644 5.34h10.773a3.302 3.302 0 0 1 3.31 3.31v8.448c0 .343-.052.673-.148.983H7.987a3.33 3.33 0 0 1-.148-.983v-8.45a3.302 3.302 0 0 1 3.309-3.309z"/>
    <path style="fill:#000;stroke-width:1.89571" d="M15.309 0A15.27 15.27 0 0 0 0 15.307V98.67a15.27 15.27 0 0 0 15.309 15.307h85.302a15.27 15.27 0 0 0 15.307-15.307V26.668L92.465 0H15.309zm17.408 6.64h28.637v19.475h9.712V6.641h11.83v18.488a12.068 12.068 0 0 1-12.095 12.1H44.814a12.072 12.072 0 0 1-12.093-12.096L32.717 6.64zM84.897 39v.063h-.06a15.186 15.186 0 0 0 .06-.063zm-47.79 20.18h40.717a12.48 12.48 0 0 1 12.51 12.51v31.931c0 1.296-.196 2.545-.559 3.717H25.16a12.586 12.586 0 0 1-.558-3.717V71.686A12.48 12.48 0 0 1 37.107 59.18z" transform="scale(.26459)"/>
</svg>
