<svg version="1.1" id="Ebene_1" xmlns="http://www.w3.org/2000/svg" xmlns:xlink="http://www.w3.org/1999/xlink" x="0" y="0" viewBox="0 0 567.001 111.458" style="enable-background:new 0 0 567.001 111.458" xml:space="preserve">
    <style>
        .st2{fill:#039;clip-path:url(#SVGID_4_)}
    </style>
    <path d="M207.906 20.226c4.185 0 8.027.605 11.526 1.814 3.498 1.211 6.524 2.764 9.074 4.66 2.551 1.897 4.545 3.99 5.984 6.278 1.438 2.29 2.19 4.48 2.256 6.573 0 .589-.213 1.096-.638 1.521-.426.426-.899.638-1.422.638h-12.851c-.917 0-1.652-.13-2.208-.392-.556-.261-1.128-.653-1.717-1.177a40.709 40.709 0 0 1-.932-.981c-.426-.457-1.03-.932-1.815-1.423-.785-.49-1.766-.915-2.943-1.275-1.177-.359-2.617-.54-4.316-.54-1.243 0-2.437.083-3.581.245-1.145.164-2.158.426-3.041.785-.883.36-1.604.868-2.158 1.521-.557.655-.834 1.472-.834 2.453s.31 1.799.932 2.453c.621.654 1.667 1.26 3.139 1.814 1.471.557 3.417 1.096 5.837 1.619 2.418.524 5.427 1.145 9.025 1.864 3.596.721 6.735 1.636 9.417 2.747 2.681 1.113 4.92 2.501 6.72 4.169a15.777 15.777 0 0 1 4.022 5.886c.883 2.256 1.324 4.922 1.324 7.995 0 3.335-.752 6.312-2.256 8.927-1.505 2.616-3.614 4.855-6.328 6.72-2.714 1.864-5.919 3.286-9.614 4.268-3.695.98-7.734 1.472-12.115 1.472-4.448 0-8.502-.589-12.165-1.767-3.663-1.177-6.818-2.729-9.466-4.659-2.649-1.929-4.726-4.104-6.229-6.523-1.505-2.419-2.29-4.871-2.354-7.357 0-.589.212-1.095.638-1.521.425-.425.898-.638 1.422-.638h12.851c.915 0 1.634.115 2.158.343.523.23 1.045.573 1.57 1.03.26.263.653.687 1.177 1.275.523.589 1.227 1.194 2.109 1.814.883.623 1.994 1.162 3.335 1.619 1.339.458 2.992.687 4.954.687 3.465 0 6.359-.375 8.682-1.128 2.32-.751 3.482-2.109 3.482-4.071 0-.98-.426-1.798-1.275-2.452-.851-.653-2.126-1.259-3.826-1.815-1.702-.555-3.875-1.094-6.523-1.618a487.11 487.11 0 0 1-9.369-1.962c-6.737-1.438-11.658-3.842-14.764-7.21-3.107-3.368-4.66-7.863-4.66-13.489 0-2.811.637-5.493 1.913-8.044 1.275-2.55 3.123-4.807 5.542-6.769 2.419-1.962 5.347-3.515 8.78-4.66 3.437-1.145 7.279-1.719 11.531-1.719zm57.093 10.595c0 .72-.262 1.341-.785 1.864-.524.524-1.145.785-1.864.785h-12.36c-.72 0-1.341-.261-1.864-.785-.524-.523-.785-1.144-.785-1.864v-9.908c0-.719.26-1.34.785-1.864.522-.523 1.144-.785 1.864-.785h12.36c.719 0 1.34.262 1.864.785.523.524.785 1.145.785 1.864v9.908zm0 56.407c0 .72-.262 1.341-.785 1.863-.524.524-1.145.785-1.864.785h-12.36c-.72 0-1.341-.261-1.864-.785-.524-.522-.785-1.144-.785-1.863V41.513c0-.719.26-1.339.785-1.864.522-.522 1.144-.785 1.864-.785h12.36c.719 0 1.34.262 1.864.785.523.524.785 1.145.785 1.864v45.715zm35.608 9.515c2.485 0 4.675-.573 6.573-1.717 1.896-1.146 2.845-2.862 2.845-5.15v-6.867a27.92 27.92 0 0 1-1.913 2.109c-.687.687-1.538 1.309-2.551 1.864-1.015.556-2.256 1.015-3.728 1.373-1.472.36-3.287.539-5.445.539-2.943 0-5.723-.441-8.338-1.324-2.616-.883-4.905-2.239-6.867-4.07s-3.548-4.12-4.758-6.867c-1.211-2.747-1.881-5.984-2.011-9.712a52.868 52.868 0 0 1-.098-3.482c0-1.34.032-2.502.098-3.482.13-3.728.8-6.98 2.011-9.761 1.209-2.779 2.796-5.068 4.758-6.867 1.962-1.798 4.25-3.154 6.867-4.071 2.615-.915 5.396-1.373 8.338-1.373 2.158 0 4.022.196 5.592.588 1.57.393 2.909.883 4.022 1.472 1.111.588 2.026 1.226 2.747 1.913a18.167 18.167 0 0 1 1.766 1.913v-2.256c0-.719.261-1.339.785-1.864.523-.522 1.144-.785 1.864-.785h11.379c.719 0 1.34.262 1.864.785.522.524.785 1.145.785 1.864v47.774c0 3.662-.671 6.883-2.011 9.663-1.341 2.779-3.188 5.101-5.542 6.965s-5.167 3.253-8.437 4.169c-3.271.915-6.867 1.374-10.791 1.374-5.102 0-9.271-.638-12.508-1.913s-5.772-2.813-7.603-4.61c-1.832-1.8-3.107-3.679-3.826-5.642-.72-1.962-1.113-3.663-1.177-5.101-.066-.721.179-1.341.735-1.864.555-.523 1.193-.784 1.913-.784H290.7c1.374 0 2.386.652 3.041 1.962.457.849 1.16 1.602 2.109 2.256.947.651 2.533.979 4.757.979zm-8.632-35.806c-.132.981-.196 1.783-.196 2.403 0 .623.064 1.423.196 2.404.196 2.29.996 4.186 2.403 5.689 1.405 1.505 3.547 2.256 6.425 2.256 2.681 0 4.724-.735 6.131-2.207 1.405-1.472 2.271-3.154 2.6-5.052a19.653 19.653 0 0 0 0-6.181c-.262-1.896-1.113-3.563-2.551-5.003-1.439-1.438-3.499-2.158-6.18-2.158-2.813 0-4.938.736-6.376 2.208-1.439 1.472-2.256 3.353-2.452 5.641zm98.882 26.291c0 .72-.262 1.341-.785 1.863-.524.524-1.145.785-1.864.785h-12.36c-.721 0-1.341-.261-1.864-.785-.524-.522-.785-1.144-.785-1.863v-24.82c0-2.811-.687-5.067-2.06-6.769-1.373-1.7-3.531-2.551-6.474-2.551s-5.086.851-6.426 2.551c-1.341 1.701-2.011 3.958-2.011 6.769v24.819c0 .72-.262 1.341-.785 1.863-.524.524-1.145.785-1.864.785h-12.36c-.72 0-1.341-.261-1.864-.785-.524-.522-.785-1.144-.785-1.863V41.513c0-.719.26-1.339.785-1.864.522-.522 1.144-.785 1.864-.785h11.87c.719 0 1.339.262 1.864.785.522.524.785 1.145.785 1.864v2.256c.523-.653 1.177-1.339 1.962-2.06.785-.719 1.732-1.356 2.845-1.913 1.111-.555 2.403-1.013 3.875-1.373 1.472-.359 3.188-.54 5.15-.54 3.139 0 6.016.441 8.633 1.324 2.615.883 4.855 2.241 6.72 4.071 1.864 1.832 3.318 4.154 4.365 6.965 1.045 2.813 1.569 6.148 1.569 10.006v26.979zm7.554-11.87c0-4.316 1.651-7.88 4.954-10.692 3.301-2.812 8.682-4.872 16.137-6.181l11.477-1.962c0-1.57-.426-2.86-1.275-3.875-.85-1.013-2.322-1.521-4.414-1.521-1.504 0-2.664.213-3.482.638-.818.426-1.422.802-1.814 1.128-.588.524-1.145.851-1.668.981-.523.132-1.145.196-1.863.196h-12.459c-.654 0-1.194-.196-1.619-.588-.426-.393-.605-.915-.54-1.57.13-1.503.785-3.073 1.962-4.708 1.177-1.634 2.795-3.139 4.855-4.513 2.06-1.373 4.513-2.517 7.358-3.434 2.844-.915 5.936-1.373 9.27-1.373 3.988 0 7.455.49 10.398 1.471 2.943.981 5.379 2.339 7.309 4.071 1.928 1.733 3.352 3.793 4.268 6.18.916 2.388 1.373 5.02 1.373 7.896v29.725c0 .72-.262 1.341-.785 1.863-.523.524-1.145.785-1.863.785h-12.359c-.721 0-1.342-.261-1.865-.785-.523-.522-.785-1.144-.785-1.863V84.48c-1.568 1.962-3.516 3.517-5.836 4.66-2.322 1.144-5.381 1.717-9.172 1.717-2.813 0-5.314-.393-7.504-1.178-2.192-.785-4.022-1.864-5.494-3.237a13.855 13.855 0 0 1-3.384-4.905c-.788-1.895-1.18-3.956-1.18-6.179zm22.366 2.255c1.438 0 2.779-.245 4.021-.735s2.32-1.16 3.238-2.011a9.397 9.397 0 0 0 2.158-2.992 8.771 8.771 0 0 0 .783-3.679l-9.023 1.373c-1.768.328-3.189.883-4.268 1.668-1.08.785-1.619 1.8-1.619 3.041 0 1.243.408 2.109 1.227 2.6.817.49 1.977.735 3.483.735zm56.406 9.615c0 .72-.263 1.341-.785 1.863-.524.524-1.145.785-1.863.785h-12.36c-.721 0-1.342-.261-1.864-.785-.524-.522-.785-1.144-.785-1.863V22.875c0-.719.261-1.339.785-1.864.522-.522 1.144-.785 1.864-.785h12.36c.719 0 1.339.262 1.863.785.522.524.785 1.145.785 1.864v64.353zm89.523-.589c.196.262.295.622.295 1.079 0 .589-.213 1.096-.638 1.521a2.078 2.078 0 0 1-1.521.638h-15.598c-.917 0-1.668-.196-2.257-.589-.588-.393-1.177-.947-1.766-1.667l-18.54-23.348v22.955c0 .72-.263 1.341-.785 1.863-.524.524-1.146.785-1.864.785h-12.851c-.721 0-1.341-.261-1.864-.785-.523-.522-.784-1.144-.784-1.863V23.856c0-.719.261-1.339.784-1.864.523-.522 1.144-.785 1.864-.785h12.851c.719 0 1.34.262 1.864.785.522.524.785 1.145.785 1.864v20.699l17.265-21.189a21.27 21.27 0 0 1 1.275-1.374c.522-.522 1.405-.785 2.648-.785h15.304c.589 0 1.095.213 1.521.638.425.426.638.932.638 1.521 0 .458-.098.818-.294 1.079l-24.23 29.625 25.898 32.569z" style="fill:#039" id="Text"/>
    <defs>
        <path id="SVGID_1_" d="M0-.598h157.197v111.402H0z"/>
    </defs>
    <clipPath id="SVGID_2_">
        <use xlink:href="#SVGID_1_" style="overflow:visible"/>
    </clipPath>
    <g style="clip-path:url(#SVGID_2_)">
        <defs>
            <path id="SVGID_3_" d="M0-.598h157.197v111.402H0z"/>
        </defs>
        <clipPath id="SVGID_4_">
            <use xlink:href="#SVGID_3_" style="overflow:visible"/>
        </clipPath>
        <path class="st2" d="M.607 75.285c2.957-1.872 10.882 6.629 21.713 14.362 7.039 5.026 18.661 8.853 28.952 8.143 16.757-1.156 23.71-4.386 37.85-11.763 11.088-5.785 22.27-13.948 31.82-19.767 5.646-3.441 12.449-6.567 20.107-8.932 9.948-3.071 16.148-.501 16.148.494 0 1.708-11.752 7.285-20.688 13.323-11.49 7.764-16.879 11.531-19.509 13.257-7.518 4.935-20.387 13.411-25.948 16.092-8.695 4.192-18.633 8.229-30.899 9.782-16.073 2.035-33.311-1.882-44.718-10.558C1.721 89.287-1.548 76.65.607 75.285"/>
        <path class="st2" d="M23.112 84.347s12.419-32.107 14.23-36.798c5.747-14.886 8.213-22.798 17.158-26.123 4.664-1.734 13.022-.163 16.008.066 4.411.339 5.467-.955 6.464-3.449 2.122-5.303 3.954-9.546 3.664-10.414-.073-.219-1.474-.592-1.639-1.253-.096-.386 2.626-6.609 3.278-6.963.676-.365 23.721 8.409 23.914 9.374.179.896-1.929 6.653-2.797 7.135-.678.377-1.84-.767-2.7-.289-.607.337-1.472 2.853-4.242 9.931-.868 2.218-.169 4.714 2.218 6.653 3.085 2.507 9.103 6.307 11.956 11.282 3.761 6.557 1.929 10.501-3.568 24.202l-.385 1.061s-9.427 7.917-26.617 16.06c-10.066 4.768-19.451 7.009-26.897 7.863-1.202.138-4.739-2.688-7.6-2.967-2.857-.28-10.651.869-11.309.638-5.459-1.923-11.136-6.009-11.136-6.009"/>
        <path d="M74.562 38.485S61.939 31.776 57 35.512c-4.817 3.645-22.751 54.866-22.751 54.866s2.231.89 6.573 1.863c2.821.632 5.248.791 8.143.746a41.738 41.738 0 0 0 4.192-.279l21.405-54.223z" style="clip-path:url(#SVGID_4_);fill:#fc0"/>
    </g>
</svg>
